/* XPM */
static char *_e7db5833a45437189fc5ae743968825PcX2N4yJX1RuE37z[] = {
/* columns rows colors chars-per-pixel */
"50 50 233 2 ",
"   c #010203",
".  c #090302",
"X  c #030904",
"o  c #01020B",
"O  c #0A0409",
"+  c #030B0B",
"@  c #0B0C0B",
"#  c #000313",
"$  c #000A13",
"%  c #00021B",
"&  c #000A19",
"*  c #161819",
"=  c #0D0A11",
"-  c #142016",
";  c #2C2E19",
":  c #000223",
">  c #000A24",
",  c #00002B",
"<  c #000F2E",
"1  c #00122D",
"2  c #001027",
"3  c #000232",
"4  c #00013D",
"5  c #0D1A2A",
"6  c #242425",
"7  c #2C2D2C",
"8  c #212A28",
"9  c #2A2D34",
"0  c #2C3231",
"q  c #313638",
"w  c #31332D",
"e  c #000143",
"r  c #00034C",
"t  c #00084C",
"y  c #081D4C",
"u  c #000350",
"i  c #010A57",
"p  c #08145E",
"a  c #01224A",
"s  c #1A3B5E",
"d  c #263A55",
"f  c #313849",
"g  c #000160",
"h  c #071679",
"j  c #0C1E6C",
"k  c #112670",
"l  c #284058",
"z  c #1F456A",
"x  c #2A496B",
"c  c #304570",
"v  c #375473",
"b  c #514D4B",
"n  c #584F55",
"m  c #535154",
"M  c #5A5A5A",
"N  c #585C58",
"B  c #5B5D62",
"V  c #445F7E",
"C  c #4E5B64",
"Z  c #76726D",
"A  c #6B6D78",
"S  c #726E77",
"D  c #787277",
"F  c #746E62",
"G  c #11198D",
"H  c #192488",
"J  c #192591",
"K  c #1C2B98",
"L  c #0D2788",
"P  c #242E97",
"I  c #1E2EA8",
"U  c #1C3BA5",
"Y  c #232BA9",
"T  c #2433A2",
"R  c #2733AA",
"E  c #2639B7",
"W  c #2A5D8A",
"Q  c #35598C",
"!  c #3B5C8C",
"~  c #365986",
"^  c #325D92",
"/  c #3A5D96",
"(  c #295C95",
")  c #2E638C",
"_  c #366395",
"`  c #2D41BE",
"'  c #2047A6",
"]  c #435A85",
"[  c #566C83",
"{  c #507398",
"}  c #6E778A",
"|  c #4070A1",
" . c #537EB3",
".. c #687FA1",
"X. c #1B3BDC",
"o. c #202BC1",
"O. c #2738C8",
"+. c #323CCC",
"@. c #2535DD",
"#. c #2739D7",
"$. c #343BDB",
"%. c #1E3BEC",
"&. c #1B38E8",
"*. c #1F2EFD",
"=. c #1D35F3",
"-. c #1D39F3",
";. c #1D35FC",
":. c #1E3AFB",
">. c #1630F6",
",. c #2A35E6",
"<. c #2335ED",
"1. c #2637E5",
"2. c #2434F3",
"3. c #223AF4",
"4. c #2334FD",
"5. c #233AFC",
"6. c #2937FA",
"7. c #2931EE",
"8. c #3149DF",
"9. c #2548D3",
"0. c #2845EB",
"q. c #2041F0",
"w. c #315FE6",
"e. c #3161E1",
"r. c #3A6CFF",
"t. c #5079D5",
"y. c #4166FF",
"u. c #4978FF",
"i. c #5785B7",
"p. c #6688AD",
"a. c #6D8DB7",
"s. c #6F96BA",
"d. c #779EBF",
"f. c #5E82DA",
"g. c #6696CB",
"h. c #769BC7",
"j. c #6C9CDB",
"k. c #6998D7",
"l. c #719BD5",
"z. c #6681DC",
"x. c #75A6DB",
"c. c #6BA1DD",
"v. c #5D9CE4",
"b. c #5B9CEE",
"n. c #4881FF",
"m. c #5C98FA",
"M. c #588AFF",
"N. c #649CE9",
"B. c #699CE7",
"V. c #729BE9",
"C. c #6394FF",
"Z. c #639AFB",
"A. c #709DF2",
"S. c #6B88FF",
"D. c #5FA2F8",
"F. c #5EA2EB",
"G. c #62A4EA",
"H. c #70A2E1",
"J. c #68A4F5",
"K. c #70A7FA",
"L. c #96918B",
"P. c #8D919C",
"I. c #949294",
"U. c #9B9B9D",
"Y. c #998F8D",
"T. c #A5A897",
"R. c #8F95A1",
"E. c #A9AAAB",
"W. c #B3B2AE",
"Q. c #B4B7A6",
"!. c #B4ADB4",
"~. c #B4B2B2",
"^. c #B9B9BB",
"/. c #ACB1B4",
"(. c #C9BDBA",
"). c #C3C0BB",
"_. c #9BB7D8",
"`. c #8EA9DB",
"'. c #A3BAD8",
"]. c #98B7E8",
"[. c #99BEFA",
"{. c #86B0EA",
"}. c #A0BCE4",
"|. c #C2BEC2",
" X c #BDCBCE",
".X c #B3CAEB",
"XX c #BACBE9",
"oX c #A9C9FA",
"OX c #B7DFFF",
"+X c #ACD5F3",
"@X c #CDCCCD",
"#X c #C2C2C0",
"$X c #CCD4C7",
"%X c #D5D7CA",
"&X c #D4D3D4",
"*X c #DCDBDC",
"=X c #D5D6D8",
"-X c #C0C9D8",
";X c #E3D8D7",
":X c #E4E1DE",
">X c #DFDDE6",
",X c #C4DAFF",
"<X c #DEE1E3",
"1X c #C7E9FF",
"2X c #D7E8FF",
"3X c #EAEAEC",
"4X c #E3E2E4",
"5X c #EFF0E9",
"6X c #F5F4EC",
"7X c #ECFEFF",
"8X c #E6F6FE",
"9X c #F4F4F5",
"0X c #F7FDF7",
"qX c #FDFEF5",
"wX c #FCF5FD",
"eX c #F5FEFE",
"rX c #F9FFFF",
"tX c #FBFFFF",
"yX c #FAFFFD",
"uX c #FEFFFD",
"iX c #FFFFFD",
"pX c #FFFEFD",
"aX c #FFFDFF",
"sX c #FCFFFF",
"dX c #FDFEFF",
"fX c #FFFEFF",
"gX c #FEFFFF",
"hX c white",
"jX c #FEFEFE",
"kX c #FDFDFD",
"lX c #FEFEFD",
"zX c #F8F4F7",
"xX c #F5EBF3",
/* pixels */
"hXhXhXhXhXhXhXhXhXhXhXhXhXhXhXhXhXhXkXqXkXqXrXhXkXkXhXkXkXeXhXhXhXhXhXhXhXhXhXhXhXhXhXhXhXhXhXhXhXhX",
"hXhXhXhXhXhXhXhXhXhXhXhXhXhXhXhXhXhXqXkXkXqXhXhXkXkXkXkXkX0XkXkXhXhXhXhXhXhXhXhXhXhXhXhXhXhXhXhXhXhX",
"hXhXhXhXhXhXhXhXhXhXhXhXhXhXhXhXhXhXhXkXkXkXkXhXkXwXhXkXkXkXhXhXhXhXhXhXhXhXhXhXhXhXhXhXhXhXhXhXhXhX",
"hXhXhXhXhXhXhXhXhXhXhXhXhXhXhXhXhXhXhXhXhXrXhXhXkXkXhXkXkXrXhXhXhXhXhXhXhXhXhXhXhXhXhXhXhXhXhXhXhXhX",
"hXhXhXhXhXhXhXhXhXhXhXhXhXhXhXhXkXkXkXkXhXrXrXrXhXhXhXhXrXrXhXhXhXhXhXhXhXhXhXhXhXhXhXhXhXhXhXhXhXhX",
"hXhXhXhXhXhXhXhXhXhXhXhXhXhXhXkXkXkXkXkXhXrXeXeXrXrXrXhXhXhXhXhXhXhXhXhXhXhXhXhXhXhXhXhXhXhXhXhXhXhX",
"hXhXhXhXhXhXhXhXhXhXhXhXhXhXhXkXqXkXhXkXkXkXhXrXrXhXhXhXhXhXhXkXhXhXhXhXhXhXhXhXhXhXhXhXhXhXhXhXhXhX",
"hXhXhXhXhXhXhXhXhXhXhXhXhXhXhXkXkXkXhXkXkXkXhXkXkXkXhXkXhXkXhXhXhXhXhXhXhXhXhXhXhXhXhXhXhXhXhXhXhXhX",
"hXhXhXhXhXhXhXhXhXzXhXkXkXhXkXkXkXhXwXkX;X(.L.F Z Z D Y.(.;XwXrXhXhXhX0XhXqXhXhXhXhXhXhXhXhXhXhXhXhX",
"hXhXhXhXhXhXhXhX9XkXhX0XhXhXkXkXkX4X^.n . . .   +     . . O m ~.3X0XhXkXhXkXzXhXhXhXhXhXhXhXhXhXhXhX",
"hXhXhXhXhXhXhXhXhXhXhXhXhXzXhXzXW.8   o .   + $ : : > O     o   7 E.kXhXwX0XhXhXhXhXhXhXhXhXhXhXhXhX",
"hXhXhXhXhXhXhXhXkXzXhXzXhXhX*XM     O   * C [ { i. .{ V B =   X     N *XhXhXhXhXhXhXhXhXhXhXhXhXhXhX",
"hXhXhXhXhXhXhXhXhXhXhXwXhX@Xw   .   0 E.9X7X+Xg.v.N.l..XeX9XE.7       6 =XkXwXhXhXhXhXhXhXhXhXhXhXhX",
"hXhXhXhXhXhXhXhXhX0X0XhX&X6   X @ U.zXwXrX7X1Xc.G.J.l.2XeXhXeX0XI.@     * &XhX0XhXhXhXhXhXhXhXhXhXhX",
"hXhXhXhXhXhXhXhXhXkXhX*X7     * =XwXkX6XqXqXeX].V.k.].7XrXqXeXrXrX@X6 @ . 6 =XhXhXhXhXhXhXhXhXhXhXhX",
"hXhXhXhXhXhXhXhXhXhXzXN   o * <XrXhXqXqXqXqXrX8X[.[.8XrXhXqXeXeXkXkX<X*   o M 9XhXkXhXhXkXhXhXhXhXhX",
"qXqXqXhXhXhXrXrXkXkXW.o o &  XrXrXkXrXhXrXhXeXeX7X7XwXrXhXkXrX0XrXrXeX X& + o /.kXqXqXhXkXkXhX0XhXhX",
"kXkXhXhXhXhXhXrXhX3X7   % ] _.7XeXhXzXrXeXeX8XXX'.XXXX2XeXeXrXrXzXrX7X'.v > o 0 3XkXqXkXwXkXhXhXhXhX",
"hXhXhXkXkXhXhXkXqXW.  $ a g.x.2XwXhXhXeX7X_.h.s.s.p.h.h.}.7XrXhXhX7X1Xl.l.a &   W.kXqXkXkXhXkXhXhXhX",
"rXrXhXhXkXkXkXkXqXb @ % _ H.N.{.eXwXrX8X_.s.z 1 : 1 < x a._.8XrXeX7X[.N.B._ $   n zXkXqXrXhXkXkXhXhX",
"eXeXrXhXkXkXhXqX;X.   2 k.J.J.B.OX7X7X.X..: % # + + # # < ...X8XeX,XB.b.b.j.>   O ;XhXrXrXrXkXkXhXhX",
"rXrXrXhXhXhXhXkX(.X o l H.b.b.b.x.OX+Xa.> # + o q 0 + o # > p.oXOX`.N.b.J.k.d o o #X0X0X0XqXqXhXhXhX",
"kXkXhXhXhXhXrXrXP.# # v c.F.F.J.j.c.l.s &   8 *XrXrX>X9 o # v h.l.j.G.F.v.l.] # % R.eXrXkXqXkXkXhXhX",
"qXkXhXhXhXhXrXeXA # & l Q ( ( ( ( ^ ~ 2 o   =XhXhXkXzX>X  o : V Q W ) ) ) ~ d # # A rXhXqXqXkXhXhXhX",
"kXkXkXkXkXkXqXkXD O . O # % # # % % + o o f kXqXwXwXkXqX0 o O o # % # $ % %       } hXqXqXqXrXhXkXhX",
"kXkXkXkXqXkXkXkXD   . . # % # # % % o o o 9 kXkXkXwXqXkXq o o # # # $ # % % o . . S hXqXqXqXrXwXhXhX",
"hXkXqXqXqXkXhXrXS o # f ~ ^ ~ Q Q Q ] < o @ %XqXwXwXkX=XX $ : ] ! / ) ) / ! d o o S hXkXqXqXhXrXhXhX",
"hXhXqXqXkXhXhXrXI.# # c j.K.N.N.A.A.f.p : X w %XkXkX>X8 X % k t.V.J.v.b.Z.B.c # o Y.wXkXqXqXhXkXhXhX",
"hXhXqXkXhXkXhXhX'.. O a t.m.Z.Z.m.M.9.` r %     0 q # # # e E 8.S.C.m.J.C.t.y #   ).hXhXhXkXkXkXhXhX",
"rXhXhXhXhXhXhXhX;X  # 3 ' e.u.u.r.0.q.X.T r : # % # : , e P @.<.0.y.u.n.e.U , # . :XhXrXkXkXkXkXhXhX",
"kXkXrXhXhXhXkXqXkXb o , L O.&.%.%.&.=.3.,.o.G r 4 e r h E ,.6.6.3.3.&.&.#.J :   m zXrXeXqXqXhXkXhXhX",
"0XkXhXhXkXhXkXkXqX~.o : i E @.5.3.=.6.>.4.2.O.+.R T O.O.=.4.*.6.=.:.%.0.E i #   W.hXeXrXkXqXkXkXkXhX",
"rXrXrXhXkXqXhXhXkX3X6 + , h $.7.4.5.;.=.5.6.2.<.,.1.1.&.-.5.5.;.;.-.3.O.H 3   ; 5XwXrXhXkXqXhXhXhXhX",
"rXhXhXkXkXqXhXhXwXkXQ.X # e Y ,.5.;.;.3.3.=.5.5.4.4.5.3.=.=.;.;.:.%.#.Y 4 % . Q.0XhXhXhXkXhXkXkXhXhX",
"kXkXhXhXkXkXkXkXkXkX5XN . : u Y <.4.2.3.=.-.5.>.;.;.;.;.5.;.5.4.3.#.T t , # B 9XkXkXkXrXhXhXhXqXkXhX",
"qXkXhXhXhXhXhXhXkXwXkX%X8 + , u I #.@.2.3.&.5.:.;.;.;.;.6.4.2.@.#.T r : O 9 4XwXkXkXkXkXkXhXkXqXkXhX",
"kXkXhXhXhXhXhXhXhXkXqXkX$X-   # 3 k E +.<.=.-.-.=.:.6.5.*.7.7.$.H e : # 6 @XkXkXkXqXkXrXrXhXkXqXkXkX",
"hXhXhXhXhXhXhXhXkXhX0XqXqX$X; X o : i P +.#.#.#.X.#.@.,.$.O.G i 3 % # 6 &XwXqXqXqXqXqXrXhXhXkXkXkXhX",
"hXkXhXhXhXrXhXrXqXhXhXkXrXhX%XN # # : : 3 p H J K T P k t 3 : #   @ M >XkXkXqXqXqXqXhXrXhXhXkXkXhXhX",
"kXkXkXhXrXhXrXhXqXkXkXkXhXwXrX0X!.9   o # % , 4 e 4 , : # .     ; T.kXkXkXhXqXqXqXkXrXrXhXhXhXhXhXhX",
"kXhXhXkXkXrXrXhXkXkXkXhXhXkXkXkXwXxX~.b O   # % % % # o   O m W.5XqXkXkXkXqXqXqXkXhXrXhXhXhXhXhXhXhX",
"kXkXkXqXkXhXrXhXhXqXkXkXkXkXkXkXhXkXkX6X4X|.I.S D S Z L.#X<XxXhXzXkXkXkXqXqXqXqXrXhXhXhXkXhXhXhXhXhX",
"kXkXqXqXkXhXhXrXhXqXkXkXhXhXhXhXkXqXqXhXhXkXkXkXkXhXkXqXhXhXrXhXhXhXhXkXkXkXhXrXhXhXhXkXkXhXkXkXhXhX",
"kXkXqXqXkXhXrXhXhXkXqXqXkXkXhXkXqXkXrXhXhXkXkXkXkXkXqXqXkXrXrXrXhXhXhXrXhXrXrXrXrXhXkXqXkXhXkXkXhXhX",
"kXqXkXkXkXkXhXhXkXkXkXqXqXqXkXqX0XqX0XrXrXkXkXqXqXqXkXkXrX0XwXrXrXhXhXrXhXrXhXhXhXkXkXhXkXhXhXhXhXhX",
"hXhXqXkXkXkXhXhXhXhXkXkXkXkXkXqXkXrXrXhXqX0XkXqXkXqXqXqXhXhXhXhXhXhXkXhXhXkXhXhXhXhXhXkXhXhXhXhXhXhX",
"hXhXhXkXkXkXkXhXhXhXkXkXhXhXkXkXkXqXkXhXrXhXkXkX0XhXhXhXkXkXhXwXkXhXkXkXkXkXhXkXhXhXkXkXhXhXqXqXkXkX",
"hXhXhXhXkXkXkXkXhXhXhXhXhXhXrXhXkXkXhXhXkXkXhXhXhXrXwXkXkXkXkXqXkXhXqXqXqXkXhXhXkXhXkXhXhXhXkXqXkXhX",
"hXhXhXhXhXkXhXhXhXhXhXhXhXhXhXhXhXhXhXhXhXhXhXhXhXhXhXhXhXhXhXhXhXhXhXhXkXkXhXhXhXhXhXhXhXhXkXkXkXhX",
"hXhXhXhXhXhXhXhXhXhXhXhXhXhXhXhXhXhXhXhXhXhXhXhXhXhXhXhXhXhXhXhXhXhXhXhXhXhXhXhXhXhXhXhXhXhXhXhXhXhX"
};
