/* XPM */
static char *_83425eb5d8642c2e7696bb61540abb0sHETqS8usuX3I4eX[] = {
/* columns rows colors chars-per-pixel */
"50 28 195 2 ",
"   c #010102",
".  c #05010B",
"X  c #0B030D",
"o  c #0D070A",
"O  c #16000D",
"+  c #050014",
"@  c #0A0016",
"#  c #0C021C",
"$  c #12001D",
"%  c #18001C",
"&  c #141414",
"*  c #1B1B1B",
"=  c #20001E",
"-  c #0D0229",
";  c #180022",
":  c #110128",
">  c #160C27",
",  c #1F102F",
"<  c #0A0036",
"1  c #190832",
"2  c #200C3F",
"3  c #231431",
"4  c #34193A",
"5  c #202020",
"6  c #2D2B2D",
"7  c #352933",
"8  c gray19",
"9  c #3C3A3B",
"0  c #2A174F",
"q  c #331E45",
"w  c #290F50",
"e  c #391A5E",
"r  c #3B274D",
"t  c #3A2658",
"y  c #382B61",
"u  c #3A2375",
"i  c #581C5E",
"p  c #423B4B",
"a  c #572857",
"s  c #4C3454",
"d  c #533354",
"f  c #49245A",
"g  c #4C1F6F",
"h  c #471D62",
"j  c #501E67",
"k  c #601D75",
"l  c #4C256D",
"z  c #43266D",
"x  c #5C2569",
"c  c #62226E",
"v  c #642A77",
"b  c #69357F",
"n  c gray29",
"m  c gray27",
"M  c #5B4E57",
"N  c #535354",
"B  c #5D5D5D",
"V  c #61455C",
"C  c #5E5B6A",
"Z  c #5C5064",
"A  c #59467D",
"S  c #564275",
"D  c #705B71",
"F  c #5C626B",
"G  c #656565",
"H  c #6B6C6B",
"J  c #70706E",
"K  c #646270",
"L  c #796975",
"P  c #747375",
"I  c #7B7B7B",
"U  c #79757C",
"Y  c #836B78",
"T  c #81717C",
"R  c #87897C",
"E  c #5D3E93",
"W  c #653C9E",
"Q  c #6B3A9D",
"!  c #653694",
"~  c #733B9E",
"^  c #783599",
"/  c #663787",
"(  c #613DA0",
")  c #6C3EA2",
"_  c #6736AA",
"`  c #6B3AAC",
"'  c #6738A6",
"]  c #7C33A3",
"[  c #743CA3",
"{  c #7E3FA2",
"}  c #733AA8",
"|  c #7637A7",
" . c #6C3BB1",
".. c #6C36B2",
"X. c #773CB4",
"o. c #594382",
"O. c #5D428F",
"+. c #5E4195",
"@. c #62468B",
"#. c #62429A",
"$. c #674997",
"%. c #705395",
"&. c #69559A",
"*. c #7E669E",
"=. c #7C6B9A",
"-. c #6442A2",
";. c #6A40AA",
":. c #6B48A2",
">. c #7246A6",
",. c #7857AC",
"<. c #7C66A5",
"1. c #823495",
"2. c #843A96",
"3. c #8B37A7",
"4. c #876E85",
"5. c #877F8A",
"6. c #81699D",
"7. c #9679BA",
"8. c #828283",
"9. c #8B868D",
"0. c #8C8C8C",
"q. c #888984",
"w. c #8F9088",
"e. c #8A9287",
"r. c #8F8B97",
"t. c #938F94",
"y. c #928598",
"u. c #8F9291",
"i. c #929292",
"p. c #949499",
"a. c #9B9B9B",
"s. c #979899",
"d. c #9494A0",
"f. c #A39CA1",
"g. c #A89EA9",
"h. c #9FA0A2",
"j. c #A2A2A2",
"k. c gray67",
"l. c gray72",
"z. c #CAA7FF",
"x. c #D1A3FF",
"c. c #CAB4FF",
"v. c #DEBCFF",
"b. c #D2B9FD",
"n. c #E5BDFF",
"m. c gray87",
"M. c #E0E2DF",
"N. c #DFDDE8",
"B. c #DAC0FF",
"V. c #D6C6FE",
"C. c #DCD2FF",
"Z. c #EDC7FF",
"A. c #EFC9FF",
"S. c #F0CFFF",
"D. c #EFD1FF",
"F. c #E1DBFF",
"G. c #E3E3E3",
"H. c #EAECE6",
"J. c #E7E7E9",
"K. c #ECE7ED",
"L. c #EDEDED",
"P. c #E7EDEB",
"I. c #F2E7EF",
"U. c #F4EDED",
"Y. c #F8EFE8",
"T. c #EEF2EC",
"R. c #F1F2E6",
"E. c #F2F3ED",
"W. c #F9F7EF",
"Q. c #EDEEF1",
"!. c #E6EDF3",
"~. c #F1EEF2",
"^. c #F3E4FF",
"/. c #FEEBFE",
"(. c #EDF3F4",
"). c #ECF4F9",
"_. c #E9F7F9",
"`. c #F4F4F4",
"'. c #F9F5F4",
"]. c #F6F9F5",
"[. c #FAFAF4",
"{. c #F5F5FB",
"}. c #FCF5FC",
"|. c #F5FAFD",
" X c #F4FCFE",
".X c #F5FAFB",
"XX c #F8F8F8",
"oX c #F9F9F9",
"OX c #FAF9F9",
"+X c #FFFDF9",
"@X c #FEFAFE",
"#X c #FAFEFE",
"$X c #FFFDFF",
"%X c #FEFEFD",
"&X c #FBFBFB",
/* pixels */
"XX`.XX'.`.`.`.XX`.`.&X`.$XL.`.[.R.[.U.@XU.].'.Y.$XQ. X_.P.&XU.+XU.`.`.`.&XH.&XW.'.'.'.'.`.`.W.W.].`.",
"`.XX~.{.`.`.XX`.&X[.L.`.E.&XE.U.[.H.$X~.`.W.'.W.~.{. X.X].T.'.E.XX`.`.$XL.&XE.[.W.W.'.Y.'.`.`.(.(.].",
"'.'.XX'.`.`.`.XX`.`.&X`.`.`.OXXXT. X).`.`.w.H I P =.J J e.].|.{.).&X#XQ.`.&XT.[.'.'.{.}.{.{.{.{.$X`.",
"XX~.XX`.`.XX`.XX`.XX`.`.`.`.U.`.(. X_.|.&X7 + + @ @ o X 9 (.!. X`.{.Q.#XoX].(.E.`.OX~.}.).}.`.{.(.`.",
"`.&XU.&X&XL.@X`.`..X`.`.@X`.`.&X&Xp.F C L a l g z l j h d D K F g.{.&X!.(. X(..X{.`.&X~.@X`.&X`.`.XX",
"XXL.$X`.`.$XL.&XU..X`.`.@XL.@XU./.K O % ; / ~ } ) ) } [ v O # + M &X{.`.#XP. X).`.|.L.$XH.OXR.[.[.`.",
"`.@XL.`..XL.$X`.`.$XL.`.~.`.~.g.V a i c k ^ ) _ ` _ ..X.^ k k x d M f.'.R.$XL. X|.(.#XL.+XR.W.E.`.XX",
"XX`.&X`.`.`.`.].`.~.&X`.@X`.}.T O a 2.1.>.~ W ` _  . ._ | ^ 3.1.a o Y W.[.H.#X(.).{.`.].E.W.W.`.`.`.",
"`.{.`.`.`..X`.].`.$X~.`.{.XX@XL O a ^ ] [ x.Z.>.' ' ,.v.z.~ ] ^ a O Y '.Y.'.`.`.{..X.X].`.{.{.{.`.{.",
"`.}.`.XX`.`.[.`.].L.&X&X`.@XI.4.= j 2.} ! Z./.,.:.#.&.}.A.! { ~ j % 4.}.'.'.E.$X{.`.].E.XX{.{.{.XX`.",
"{.~.&X`.`.[.`.].`.XX&XQ.@Xd.6 s v ^ ) z.S.7.6.B.C.F.V.<.7.A.x.} Q / f 4 g.Y.&XH.`.].E.].U.|.{.{.{.`.",
"`.&X`.`..XE.].].&X`.Q.@XK.p.  f ] ] -.c./.*.@.^.}.$X^.o.6./.v.! ' >.h $ y.@X`.&X.XT.[.T.[.`.{.{.{.XX",
"{.`.&X`.`.].T.].~.`.$XQ.$X9.. q ) ` +.B.}.6.o.0 3 , w $.=.}.b.:.;.#.e - y.K.$X(.`.].E.[.R.+X`.{.`.`.",
"`..X`..X].E.oXE.XX[.~.@X~.9.  r #.W #.B./.6.A - + # - o.=.}.v.E +.$.t @ 9.$XQ.&X|.`.[.R.W.R.XX{.XXXX",
"`.`.{.`.`.].`.].`.[.~.XX@Xt.. + < u W #.%.1 # N.#Xd.r.+ 2 $.-.-.z : .   s.R.`.).{.{.`.[.E.XX`.XX`.`.",
"`.XX`.].].`.].].`.`.XX`.{.9.X + - y E @.S >   G. Xs.u.. - o.O.O.t @ @   R W.{.{.{.{.{.`.'.`.{.{.`.`.",
"`.`.`.`..X`.].`.`.`.`.&XJ.i.  5.$XC @ + . .   w.h.s.e.o . + + + p s.N   q.&XL.&X{.`.&X~.&X`.`.{.`.XX",
"`.`.XXXXL.$XL.`.`.`.[.(.$Xi.& 0.G.H & * * * * 8.0.i.I o & & * & 9 0.B * a.L.&XL.`.&XQ.$XE.&X`.`.XX`.",
"`.XX`.`.&XL.$X`.&X`.`.$XJ.$X`.H   a.$X#X$X$X&X&     & j.a.a.s.a.G   P &XL.`.&X$XXX`.`.`.&X`.[.`.`.&X",
"XX`.`.`.`.&X`.`.`.`.`.`.&X`.].I   0.L.&X$X&X$Xn 8 , 6 s.a.h.h.a.C   I T.&X[.`.T.`.`..X`.`.`.{.`.`.`.",
"`.`.{.XX`.].`.`.`.`.$X`.`.`.L.P   G j.G.$X`.$X&X&Xj.a.a.j.a.s.a.G   P `.`.`.[.&X`.`.`.`.XX`.`.{.XXXX",
"`.[.`.`.#XL.$X`.&X&XL.`.`.&X&Xi.9 B H k.l.M.L.G.G.a.a.j.u.J I I B m i.&X`.$X`.`.`.XXXX`.XX`.[.`.L.`.",
"`.`.`.XXU.$XL.XXL.L.$X`.&X`.`.`.].B       8.s.a.a.j.j.j.I       B `.@XXX`.L.`.`.`.&XU.&XU.&X(.`.&X`.",
"`.`.`.`.`.`.XX`.#X].L.$XL.`.`.&X&X0.B n N G G H H G G G G N N N i.&XE.`.(.$XL.&XXX`.&X(.&X`.XX`.`.XX",
"&X`.XX`.`.`.`.XX&X`.&XE.$XQ.&X`.XX`.`.&X].6             6 [.L.$X`.[.{.`.&X`.&X`.`.&X`.#X`.&X`.XX`.`.",
"XX`.XX`.`.&X`.XX`.`.`.`.`.`.`.`.`.`.`.`.`.8.G G B H G H 8.`.`.`.`.`.`.`.`.`.`.`.`.`.`.`.`.`.`.`.XX`.",
"&X`.`.`.`.`.`.`.`.&X`.&X`.&X`.`.`.`.XX`.`.`.`.&X].&X`.`.L.$X#X`.`.XX`.`.XX`.`.`.`.XX`.`.`.`.`.`.`.`.",
"XX`.XX`.XXXX`.XX`.`.`.`.&X`.`.`.&X`.`.&XL.&X`.`.].L.&X`.].`.L.&X`.`.XX`.XX`.&X`.`.&XU.&X`.&X`.`.XX`."
};
