/* XPM */
static char *_b7b176787294181f9802aaecb97586aMReLG60E4qWvFYXu[] = {
/* columns rows colors chars-per-pixel */
"45 36 234 2 ",
"   c #010204",
".  c #0C0000",
"X  c #01020C",
"o  c #05050A",
"O  c #130101",
"+  c #1C0102",
"@  c #010114",
"#  c #01011C",
"$  c #0A0818",
"%  c #2C0506",
"&  c #2E2017",
"*  c #000124",
"=  c #050528",
"-  c #161926",
";  c #000134",
":  c #070835",
">  c #0A1935",
",  c #141737",
"<  c #0F112C",
"1  c #27183C",
"2  c #1D202C",
"3  c #1E2537",
"4  c #0E2835",
"5  c #2C2E2E",
"6  c #450400",
"7  c #570100",
"8  c #6A2303",
"9  c #4A3C35",
"0  c #573E39",
"q  c #57463A",
"w  c #694733",
"e  c #091342",
"r  c #171849",
"t  c #1C1955",
"y  c #091656",
"u  c #211E55",
"i  c #1C214A",
"p  c #23284C",
"a  c #2F3759",
"s  c #31344E",
"d  c #291F75",
"f  c #1B236B",
"g  c #362E65",
"h  c #353D64",
"j  c #2F2E77",
"k  c #463551",
"l  c #473A76",
"z  c #7F3E60",
"x  c #3C435C",
"c  c #37466C",
"v  c #394677",
"b  c #56585B",
"n  c #4C495C",
"m  c #6B5641",
"M  c #7F4D59",
"N  c #5A6556",
"B  c #434B6A",
"V  c #414C71",
"C  c #515373",
"Z  c #6C5E78",
"A  c #5E6669",
"S  c #586073",
"D  c #676B73",
"F  c #75777A",
"G  c #71686B",
"H  c #8A2800",
"J  c #AD4E34",
"K  c #874A37",
"L  c #895650",
"P  c #AB7151",
"I  c #8E7266",
"U  c #A77C68",
"Y  c #A07A79",
"T  c #A16652",
"R  c #D97B58",
"E  c #F57B4C",
"W  c #E97A52",
"Q  c #F47B60",
"!  c #CE6B65",
"~  c #AD847E",
"^  c #DE835C",
"/  c #EE8154",
"(  c #D98574",
")  c #CE8A70",
"_  c #EC896E",
"`  c #363D9A",
"'  c #353883",
"]  c #3A34A3",
"[  c #3835B4",
"{  c #2F39B5",
"}  c #433B97",
"|  c #443EBC",
" . c #38458B",
".. c #3B47BA",
"X. c #434688",
"o. c #515A8C",
"O. c #555798",
"+. c #4B4D95",
"@. c #5E6997",
"#. c #7D7B9A",
"$. c #6E6E8B",
"%. c #4952A9",
"&. c #5E63AF",
"*. c #6F77A6",
"=. c #6B73B5",
"-. c #6971B0",
";. c #463FC1",
":. c #575FD7",
">. c #4E55C6",
",. c #605FC7",
"<. c #5A65DA",
"1. c #636BCB",
"2. c #6368D9",
"3. c #7174D0",
"4. c #6764E4",
"5. c #7276E6",
"6. c #5967E4",
"7. c #8E6E8F",
"8. c #8F7AAB",
"9. c #AC778B",
"0. c #D77C83",
"q. c #7B829C",
"w. c #7B88B8",
"e. c #7B90BF",
"r. c #7987CB",
"t. c #6F8ADB",
"y. c #7C8ED3",
"u. c #7587DE",
"i. c #7A8CDB",
"p. c #7589D4",
"a. c #7B90D8",
"s. c #7B8CE4",
"d. c #7C8BEA",
"f. c #7886E8",
"g. c #7A87F6",
"h. c #7B92ED",
"j. c #858A89",
"k. c #8C8A97",
"l. c #958A96",
"z. c #9A9C99",
"x. c #9F9289",
"c. c #B38E8A",
"v. c #999BA6",
"b. c #868AB7",
"n. c #A386A8",
"m. c #B08CA5",
"M. c #9DA1AE",
"N. c #A7A5A8",
"B. c #A8A8B7",
"V. c #B4B4BA",
"C. c #BDBBBD",
"Z. c #B5B5B3",
"A. c #AFB1B5",
"S. c #CA8789",
"D. c #D3A9AE",
"F. c #E6AAAC",
"G. c #8888C8",
"H. c #8893CA",
"J. c #838AD5",
"K. c #8487D8",
"L. c #8696DA",
"P. c #9391CC",
"I. c #A494C3",
"U. c #9BABDF",
"Y. c #BBB9C3",
"T. c #AFB3D2",
"R. c #868CE2",
"E. c #8693E8",
"W. c #848AF5",
"Q. c #8D98F0",
"!. c #96A8E7",
"~. c #9FB4ED",
"^. c #ACBCEA",
"/. c #B3BDE6",
"(. c #A4ADFE",
"). c #A9AEF5",
"_. c #A5B3FC",
"`. c #ABB5FF",
"'. c #ACBCFD",
"]. c #A8B8F5",
"[. c #B8BEFA",
"{. c #A2A9E8",
"}. c #C7B7C9",
"|. c #C1BED9",
" X c #BCC4C6",
".X c #B4C3ED",
"XX c #B5C4E7",
"oX c #AEC2F8",
"OX c #B3C3F5",
"+X c #B2C3FD",
"@X c #BBC7FA",
"#X c #AFC9EE",
"$X c #CBCCC9",
"%X c #CECFD2",
"&X c #C4C6D5",
"*X c #D7D8D9",
"=X c #D0CFD4",
"-X c #E6DDDB",
";X c #C7D3F8",
":X c #D1DCF9",
">X c #C9D0EA",
",X c #DEE8FF",
"<X c #D4E2F4",
"1X c #E4E5E5",
"2X c #EBECE6",
"3X c #E7EBED",
"4X c #EDEDED",
"5X c #E8E4E5",
"6X c #F1EEEC",
"7X c #FAEEEE",
"8X c #F6EDE6",
"9X c #EFF4E6",
"0X c #EEF2ED",
"qX c #F2F4E6",
"wX c #F3F3ED",
"eX c #FAF3EE",
"rX c #F5F8EF",
"tX c #EDEDF3",
"yX c #EAECFA",
"uX c #F3EEF3",
"iX c #F5EEFA",
"pX c #F9EEF8",
"aX c #EEF2F3",
"sX c #EDF4FB",
"dX c #E6F7FF",
"fX c #F3F2F3",
"gX c #F9F5F3",
"hX c #F6F8F3",
"jX c #FAFAF5",
"kX c #F4F3FA",
"lX c #FAF5FB",
"zX c #F5FAFB",
"xX c #FBFAFB",
"cX c #EDE1D5",
/* pixels */
"kXsXfXfXwXeXfXkXuXkXxX2XfXaXtXkXiXlXiXyXzX2XlXpXiXiXwX9XaXhX0XqXfX0X0X0XkX0XhXkXwXaXaXwXfX",
"sXaXfXfXuXfXuXpXfXfX0X0XhXhXfXtXlXtXyX1X=X1X5XfXuXlXwX0XzXsX2XjXhX0XhXfXhXfX4X4XfXwXaXaXaX",
"fXfXfXfXfXfXfXgXhXtX4XxXkX2XaXxX9X9XA.X @ o F qXlX4XwXqX3XkXkXfXtX4XhXaX4XfXfXxXhXfXfXaXfX",
"wXfXfXfXgXpXwX7XwXuXhXfXfXfXfX2XqX Xv., , 4 F C.-XlXwX6XwXzXtXyXkXfXhXfXhXfXfX4X0XfXaXhXfX",
"qXwXfXkXiXkXwXwXwX6XgXfXpXuXxXwX*X  i w.H.H.B   v.wXwXwX0XsXaXkXuXkXfX6XhX0XzX0XfXkXaXfXfX",
"qXwXuXfXiXfXfXwXhX2XfXfXfXuXfXN.B.x o.J.s.p.c @ N.fXwXjX2XaXzXkXfXuXuX4XhX9XaX9XfXfXkXaXaX",
"wXwXfXuXkXsXfXwX2XhXhXtXkXxXtX$ , /.).f.f.h.v # M.4XgX6XhX0XtXkXhX6XhXhXwXhX3X0XfXaXkXfXfX",
"eXwXfXsXfXfXfXfXfXfXuXlXuXiXxX@ i [.).E.g.f.v * C l.*XfXrX9XfXfXhXwXwX X~ j.~ $XfXfXfXfXfX",
"4XxXaXaXkXaXyXkXhXuX4XfXkXyXkX* r [._.s.h.i.c * # @ B.kXhX9XwXwXqX6XjXz.    o z.fXkXuXfXuX",
"xX3XxXaX0XzXsXaXfXhXxXtXsXk.$.p j [.(.s.s.a.v # g C $.F 1XqXhX6XeX*XG j.j.j.q.q.F =XfXfX6X",
"kXtX4X0XhXaXtXfXuX6X2XxXyX3 > j +.@X_.d.s.p.c = o.G.t @ *XaX4XfXwXZ.  A zXzXzXA X V.kXuXfX",
"tXhXhXzX4XhXuXgXgXgXgXF A q.*.H.K.3.2.g.s.y.c ; O.K.-.o.S b kX-Xb A B.T.:X>X;XS X V.wX6XhX",
"lXfXuXaX4XwXwXgX8XgXuXs o T..X@X(.] >.g.f.K.v : %.R.r.r.e # aX1X  s zX,XXX;XXXB @ Y.wX6XeX",
"6XwX6XuXlX6XeXx.9 0 9 k.v./.^.+X(.] %.d.Q.'.!.P.L.u.E.i.=.-.s b &XXX;X;X^.U.P.h @ V.gXqXwX",
"wXeXgXgX4XgX8XI O . . k.|./.OX'._.` %.W.Q.'.+XoX!.t.t.h.f.y.# 2 zXyX[.OX+X~.w.c @ V.gXqXwX",
"hX6XfXfXfXN.& m U U Y D.&XyXdXoX].).(._.'.+XOX+X_.oXE.K.K.P.o 2 >X^.H.y.a.!.'.v # V.wXwXfX",
"hXwXeX6XaXN.O w ! R ( D.}.dXdXXXoX+X].OX.X.X#XoXoX'.I.m.8.m.$ - XX].y.s.a.!.#Xv @ Y.aXwX7X",
"tXgX6XeXdX0XcXP 7 J ( F.}.p > XX#X+X@XOX;XdX:XOX=.X.9.S.S.S.+ - H.L._.oX'.!.e.x o Y.uXkXlX",
"kXtXhXfX0X2XcXI 6 T ) F.}.s < OX+X'././.;X:X;X|.7.z ! Q / ^ 6 % b.r.'.[._.L.w.x - V.fXfXuX",
"kXkXkX0XhXz.. w ) ) ) c.l.T.@X[.+X'.@X.X*.; } b.9.0.Q Q E / ^ c.= f J.r.i.' * M.aXjX6XiXtX",
"3XxXkXuXgXA.5 m P P ~ ~ m.T.{.)._.).).).r.y %.P.S._ E E R P P T , d -.-.3.X.# v.wXwXeXhXtX",
"sXtXlXuX4XwX8XI + + + I n.G.K.W.i.E.R.i.a.t.R.G.c.R E W 7 % % + l j ; t l t # v.wX2X6XhXkX",
"zX4XuXpXlX7XgXx.9 m 0 G $.8.3.2.2.h.f.d.s.h.t.J.7.T W E H 8 O < O.} * < g l n C.wXjXeX6XkX",
"9XgX6XlXuXfXhX6XpX7X7X9 = l } [ ..g.g.g.h.f.g.i.g % T _ ^ ) . e R.&.* @ * #.tXwX7X6XwXgXiX",
"9XqXfXiXpXpXfXaXaXaXfXl.Z g d ] | 4.4.4.4.4.<.<.+.k L L K L h  .s.&.# 5 $.B.fXhXfXfX7XfXfX",
"9XqXfXiXiXfXiXsXsXaXfXlXiX1 ; +.} [ ;.[ { [ { ..1.K.i O + . e.i.i.&.o A 0XsXhX0XkXuXfXfXfX",
"qX0XkXiXiXkXfXaXsX0XhXwXgXl.7.u ' >.:.<.6.:.<.>.5.K.O.C c B V X.J.&.  N rX0X0XhXkXiXsXuXfX",
"qXwXfXkXuXuXfXaXkXjX0X9XqXwXsX* r 5.g.g.g.g.g.g.W.s.i.r.e.b.* , H.@.o N 0XhXhX9XkXiXfXfXfX",
"wXwXfXaXfXfXwXwX6X2XxXwX9XjX2XX r K.f.W.5.%.%.' 1.d.h.a.c s $ = h p   N 6X2XwXhXaXaXkXfXfX",
"wXfXfXkXsXaXwXqXgXgX2XfXfXwXwX  : G.G.K.3.} u ; %.E.p.r.> X o @ @ @ X G hXjXwXwXfXaXaXaXfX",
"fXfXkXaXaXaXwXwX7XpXiXsXzX3XxXY.V.3 u p r < $ # *.~.~.~.4 X Y.}.V.Y.A.%XpX6X6XwXrX0XaXaXaX",
"wXuXfXsXaXaXwXwX7XiXiXyXkXzXuXaX*X  X @         #.XXXX#X-   uXuXuX4XiXlXpX6XxXwX0X0XkXaXfX",
"fXwXfXuXfXaXwXwXfXuXfXfXkXaXfXfX1X*X%X%X=X%X%X%XD 2 3 5  X%X4XfXfXfXfXfXuXfXfXwX6XfXfXaXwX",
"fXfXfXfXfXaXfXuXfXfXfXfXfXfXfXfXxXfXtXfXhXhXfXfXb .     *X4XxXfXfXfXfXfXfXwXfXaXaXfXfXfXfX",
"fXaXaXfXwXfXfXwXfXfXwXfXfXwXfXfX4XaXfXfXuX0XuX4X4X3X1X1XtXhX2XkXfXfXfX6XfXfXfXfXfXfXfXfXfX",
"fXfXwXfXfXfXaXuXfXfXfXfXfXaXfXfXwXhXkXfXfXfXfXfXfX2XjXfXfXfXhX6XwXfXaXfXaXfXfXfXfXfXwXfXaX"
};
