/* XPM */
static char *_f6222e68d3448c8872215d9c816e30aAptgpDZIYk84sENe[] = {
/* columns rows colors chars-per-pixel */
"55 34 213 2 ",
"   c #3F2C2E",
".  c #3F3430",
"X  c #422C2B",
"o  c #46322D",
"O  c #4A352E",
"+  c #4A352A",
"@  c #523B2E",
"#  c #432F32",
"$  c #453433",
"%  c #4B3634",
"&  c #4C3A35",
"*  c #453639",
"=  c #4A3639",
"-  c #46393A",
";  c #4C3A3B",
":  c #523C34",
">  c #533D3B",
",  c #523633",
"<  c #4D413C",
"1  c #55403C",
"2  c #5B433C",
"3  c #4E3E41",
"4  c #573D40",
"5  c #4D4142",
"6  c #554342",
"7  c #5B4541",
"8  c #574942",
"9  c #5B4943",
"0  c #554C4C",
"q  c #5D4B4A",
"w  c #614542",
"e  c #624A44",
"r  c #624648",
"t  c #634B4C",
"y  c #6A4E4C",
"u  c #65534B",
"i  c #6B534C",
"p  c #645B4D",
"a  c #6E584A",
"s  c #72564C",
"d  c #6B4E50",
"f  c #645553",
"g  c #6C5452",
"h  c #6B5B55",
"j  c #6B5558",
"k  c #6D5B5A",
"l  c #655959",
"z  c #735554",
"x  c #795756",
"c  c #735B54",
"v  c #795B56",
"b  c #755759",
"n  c #755B5A",
"m  c #7B5B5B",
"M  c #6E6455",
"N  c #6B615B",
"B  c #756255",
"V  c #7A6255",
"C  c #7C635C",
"Z  c #766A5E",
"A  c #73645B",
"S  c #745E60",
"D  c #7B5E60",
"F  c #736364",
"G  c #7C6462",
"H  c #756B63",
"J  c #7C6A62",
"K  c #78696C",
"L  c #7E736A",
"P  c #7B6F71",
"I  c #82665C",
"U  c #836A5E",
"Y  c #85705F",
"T  c #826662",
"R  c #846B64",
"E  c #8A6C66",
"W  c #86676A",
"Q  c #846C69",
"!  c #8B6D6B",
"~  c #916F6E",
"^  c #8C7265",
"/  c #85726D",
"(  c #8C726C",
")  c #8C7A6D",
"_  c #927267",
"`  c #93746C",
"'  c #947A6D",
"]  c #997869",
"[  c #8F6F70",
"{  c #857372",
"}  c #8B7473",
"|  c #837A75",
" . c #8B7C71",
".. c #84797A",
"X. c #8A7C7E",
"o. c #947472",
"O. c #987673",
"+. c #947A73",
"@. c #9A7B72",
"#. c #967A7A",
"$. c #9A7B79",
"%. c #977778",
"&. c #9E816F",
"*. c #8B8379",
"=. c #9C8474",
"-. c #90837C",
";. c #9D837B",
":. c #9C8A7B",
">. c #938375",
",. c #A0816F",
"<. c #A38471",
"1. c #A18679",
"2. c #A28B7B",
"3. c #A98E7D",
"4. c #B18E7A",
"5. c #AA917D",
"6. c #B19E7E",
"7. c #ADA07E",
"8. c #B4A17E",
"9. c #938B85",
"0. c #958A88",
"q. c #988A88",
"w. c #9B918C",
"e. c #9E9181",
"r. c #9D9495",
"t. c #8B8285",
"y. c #A38B81",
"u. c #A39484",
"i. c #AC9384",
"p. c #AC968A",
"a. c #AB9A8A",
"s. c #A79789",
"d. c #B39484",
"f. c #B49C85",
"g. c #B49D8B",
"h. c #BC9F8B",
"j. c #B89E85",
"k. c #A69A99",
"l. c #B49E91",
"z. c #B99F90",
"x. c #B4A485",
"c. c #B8A384",
"v. c #B6A38B",
"b. c #BAA38C",
"n. c #BAA88A",
"m. c #B8A887",
"M. c #ACA197",
"N. c #B5A493",
"B. c #BBA493",
"V. c #BDAA95",
"C. c #B5A19A",
"Z. c #BBAA9B",
"A. c #A79EA1",
"S. c #AFA7A4",
"D. c #BEACAD",
"F. c #B4A8A2",
"G. c #BDB2AA",
"H. c #B8AFB0",
"J. c #BDB5B3",
"K. c #C1A28E",
"L. c #C0A890",
"P. c #C0B2AF",
"I. c #C3B6B6",
"U. c #C5BCBB",
"Y. c #C8BAB8",
"T. c #CAC1B8",
"R. c #CDC4C1",
"E. c #CFC9C3",
"W. c #D4CBC5",
"Q. c #D7CBC9",
"!. c #DACACA",
"~. c #D8D0CE",
"^. c #DFD4D3",
"/. c #E3DBDA",
"(. c #EEDAD9",
"). c #EAE3DC",
"_. c #F1E4DE",
"`. c #ECE5E4",
"'. c #ECEDEC",
"]. c #E6E6E5",
"[. c #F2E6E4",
"{. c #F4EAE7",
"}. c #F2EDEC",
"|. c #FAEEED",
" X c #F8EFE6",
".X c #EEF1ED",
"XX c #F3F2EE",
"oX c #F9F2ED",
"OX c #FCF8EF",
"+X c #EEEEF1",
"@X c #F1EEF2",
"#X c #F5EFF5",
"$X c #EEF1F2",
"%X c #F4F4F4",
"&X c #FBF5F4",
"*X c #F6F8F5",
"=X c #FCF9F6",
"-X c #F7F7F9",
";X c #F6F5F9",
":X c #F6F6FA",
">X c #F9F7F8",
",X c #F9F7FA",
"<X c #FAF6FA",
"1X c #F6F9F9",
"2X c #F8F8F8",
"3X c #FAF9FA",
"4X c #FEFDFA",
"5X c #FAFAFD",
"6X c #FDFBFD",
"7X c white",
"8X c #FEFEFF",
"9X c #FDFDFD",
"0X c #FCFCFC",
/* pixels */
"'.0X1X$X0X$X$X8X'.0X0X.X8X%X}.8X:X:X<X+X8XXX X=XOXOXOX.X=X0X'.0X+X5X1X'.1X5X'.8XXX%X4XXX>X2X'.8X%X%X8X%X-X2X%X",
"1X*X$X0X$X0X1X%X0X*X$X4X$X0X2X%X5X:X<X<X'.XX=X X-.*.).OX=X.X0X$X:X%X5X8X5X+X2X-X2X2X%X2X;X;X3XXX2X8X'.8X%X%X2X",
"1X:X:X:X:X:X1X*X*X%X=X*X>X*X2X2X>X>X>X3X`.T.Z M >.*.M p *.T.W.2X>X4XXX&X'.8X2XXX&X-X2X%X<X6X;X5X-X%X2X-X*X2X-X",
"%X1X0X%X8X%X*X0X%X*X0XXX=XXX&X=X@X=XoXG.*.Z e.N.v.v.Z.w.Z. .Z -.*.U.4X}.4X2XXX4X%X-X3X%X;X6X}.5X%X%X8XXX>X2X%X",
"5X>X%X5X%X5X>X%X=X2XXX=XXX=X*XXX=X).N Z u.Z.a.x.b.b.g.V.a.N.Z.s.w.Z J.=X X}.8X@X2X:X:X5X;X#X8X@X2X3X'.8X-X%X2X",
"<X<X>X>X:X>X%X>X>X2X%X&X*X*XOX&X&X-.L >.:.5.b.n.g.n.f.B.N.u.2.:.A u p }.=X3X'.8X2X:X:X1X;X;X5X%X>X-X-X2X2X%X2X",
";X>X3X@X5X;X;X3X%X:X0XXX4XXX%X=X!.i / R >.=.' &.f.f.b.j.&.a : : % & $ k.=X|.;X>X%X:X0X:X;X>X%X3X>X}.8X.X2X2X%X",
"8X}.;X8X}.5X5X'.8X$X%X8X$X1X8X{.!.e / @.^ ^ &.' ] @.B.=.@ @ + O & $ $ F /.%X5X'.0X1X$X0X-XXX4X'.0X2X'.4X2X%X2X",
"%X*X4X.X8X:X%X0X:X+X8X%X8X:X-X3XP.D n o.` _ _ ] _ ] ;.R : o & O $ ; * . U.6X@X8X1X1X1X*X0X*X.X4X-X%X8X%X*X2X%X",
"XX2X*X*X2X*X:X%X+X8X'.5X5X}.-X&Xb G W W o.$.O.@.' ` +.T : $ & - $ 3 * 3 0 #X<X>X:X1X1X.X*X1XXX*X%X0X].0X%X%X2X",
"0X.X%X*X-X.X8X%X8X%X>X;X-X2X`.^.q ! %.` %.` E ` ' ^ ( Q 6 $ - * ; # - - 3 A.;X%X0X1X*X*X0X.X*X.X*X-X0X-X2X2X2X",
".X*X0X.X*X2X%X8XXX&X&X&XS.M.N p z T R ( ` ` @._ ( E / J t - - - % * = < * k.[.5X%X'.=X*X.X0X*X0X-X%X8XXX-X2X-X",
"0X'..X8X%X4X4XXX&X).L Z M *.u.s.s.i.u.d.i.d.d.` ` ( ( v h ; ; = ; & O O $ *._.[.OX=XOX4XXXXX1X%X-X2X'.0X-X%X2X",
"*X*X2X-X-X}.%XT.w.h :.a.v.x.n.n.v.v.v.v.b.b.h.i.1.=.E z n > # % o + u 2 c ) B  .G.T.oXoX&X8X%X0X2X2X-X4X*X-X2X",
"$X%X8X'.=X4XR.N Z l.v.a.x.m.8.8.m.x.x.v.c.c.c.b.d.5.U s v r , g R Z 2.p.u.v.N.:.>.H L S.2X-X+X:X-X.X8X'.-X-XXX",
"0X:X%X8X{.Q.f / ) ' :.v.v.x.c.m.m.7.m.x.6.n.K.g.K.b.I s z y t y.l.N.v.v.V.g.v.N.l.Z.s.N I.>X8X'.2X2X$X0X*X-X2X",
";X;X<X&X&X-.n G ` O.` @.3.v.v.x.v.x.v.x.m.x.m.b.B.B.R y z z o.2.g.B.B.b.v.v.n.b.g.:.u 8 K %X>X&X*X1X*X$X1X1X1X",
"@X6X5X|.[.{ A m o.O.o.] ' 2.f.V.v.x.N.x.m.v.f.N.p.T s w w T ( ` ' 2.i.j.v.j.5.=.V o & & . 0.}.4X*X$X0X$X1X1X$X",
"5X#X@X3XI.7 +.%.~ o.O.` _ ` 2.v.v.v.V.x.x.b.:.2.! > b g z ( o.+.` ( ' 2.z.g.v : O - & $ . l /.}.8X=X.X1X$X1X:X",
"'.5X8X{.F.j Q o.~ ~ ` +.] ` ' =.N.2.:.=.^ Y 2 + : o g n W m ( ` +.+.+.( _ C : & % $ * <   * k.5X}..X8X$X1X*X%X",
"8X'.}.=X6 | C T o.O.O.~ ] ` ] E 1.v v U B B 7 % % = t D +.T o.o.+._ ` ` +.R & $ & - ; ; 3 * 3 &X=X=X&X&X*XXX0X",
"8X-X=X&Xq J o.` ~ O.O.~ O.O.E I I i v v u v g = = = 4 ! [ %.` ` ] ] ' ' ' J 2 & & # - ;   = : { Q./.{.=X2XXX8X",
"].8X|.{.8 n o.[ ~ O.O.O.O.O.W x z m T x z n S 3 = % 4 } ` $.o.] ] @.3.3.:.) a % & & o & % 9 R / { s.`.oX&X*X'.",
"0X}.=X5X6 W o.o.o.O.~ ~ ~ O.W x x x z b G j n q , = > T %.~ o._ 4.j.K.h.v.v.:.C 1 & % o 1 ' g.N.C.k.k =XXX*X=X",
"$X0X|.=X7 Q +.o.%.E [ %.%.o.I x x m x n b b S f = , : v o.` ` I @.4.K.h.h.K.l.C. .: o % v ` =.l.l.r.l &X2XXX=X",
"$X%X=X Xq ( o.( ! E o.o.[ [ D x x v b b D S n k > # & e ^ +.I E ] ] j.h.K.g.p.( t $ > % 2 I a U G ; < r.XX=X*X",
"0X$X8X=X6 R +.T w z } %.%.W b m v v m b D d z v > y c a R I e v _ _ @.y.y.! n % ; >   4 : > c c k 6 - P 2XXX0X",
"1X1XXX&Xf v Q w , % r n W W b b m b b z d t C ! ` g.p.i.y.a , , W O.~ +.G > o = # = j Q F : % g f 0 0 /.=X%X*X",
"+X>X&X|.(.;.R z > X X ; t D b D z d D D r w T T o.l.N.B.y.1 & % r [ %.! n ; - $ ; 3 F ..X.l 6 q.w.D.&X=X-X8X'.",
"8X;X|.&XG Q Q ( e & : % 4 b b b b d b b > 7 T E ^ i.l.) i $ = ; 4 J } } : O & $ * * l F P K l }.%X=X>X8X'.*X8X",
"].8X%X..G h W ( Q 7 ; $ > d b j t q d S t d C R I _ ^ O # ; ; * ; > h J q O % % * * ..R.9.0.E.4X<X%X8X'.5X5X].",
"1X:X;X^.f j  .Q { > & ; - 4 t j { S 4 q > q v +.) +.U % : # * ; $ { J.9 < < S.I.R.U.`.6X}.&X=XXX&X>X%X-X-X5X8X",
"1X:X*X>X~.X...X.........[.3X&XH...t.r.<X&X|.9.F k k i ; - - * - 5 J.&X&X=X&XXX&X=XXX0X%X-X&X*X*X%X2X4X.X2X8X;X",
"$X2X2X-X4XXX3X=X}.4X=X%X8X@X&X5X%X#X6X}.3X<X(.Y.J.I.Y.G.I.I.I.U.J.-X4X.X*X%X%X4X*X%X0X%X2X2X%X2X%X-X4X$X2X2X%X"
};
